<mxfile host="app.diagrams.net" agent="Mozilla/5.0 (Macintosh; Intel Mac OS X 10_15_7) AppleWebKit/537.36 (KHTML, like Gecko) Chrome/137.0.0.0 Safari/537.36" version="27.1.4">
  <diagram name="第 1 页" id="WbU4vd5PX0ohMQBGAPbF">
    <mxGraphModel dx="897" dy="396" grid="1" gridSize="10" guides="1" tooltips="1" connect="1" arrows="1" fold="1" page="1" pageScale="1" pageWidth="827" pageHeight="1169" math="0" shadow="0">
      <root>
        <mxCell id="0" />
        <mxCell id="1" parent="0" />
        <mxCell id="JvmCb1hBR-G6mU2QBwkz-7" value="" style="edgeStyle=orthogonalEdgeStyle;rounded=0;orthogonalLoop=1;jettySize=auto;html=1;" edge="1" parent="1" source="JvmCb1hBR-G6mU2QBwkz-5" target="JvmCb1hBR-G6mU2QBwkz-6">
          <mxGeometry relative="1" as="geometry" />
        </mxCell>
        <mxCell id="JvmCb1hBR-G6mU2QBwkz-5" value="&lt;span style=&quot;font-family: &amp;quot;JetBrains Mono&amp;quot;, monospace; font-size: 10px; background-color: rgb(255, 255, 255);&quot;&gt;StartupExecutorJob&lt;/span&gt;" style="strokeWidth=2;html=1;shape=mxgraph.flowchart.start_1;whiteSpace=wrap;" vertex="1" parent="1">
          <mxGeometry x="520" y="90" width="100" height="60" as="geometry" />
        </mxCell>
        <mxCell id="JvmCb1hBR-G6mU2QBwkz-10" value="" style="edgeStyle=orthogonalEdgeStyle;rounded=0;orthogonalLoop=1;jettySize=auto;html=1;" edge="1" parent="1" source="JvmCb1hBR-G6mU2QBwkz-6" target="JvmCb1hBR-G6mU2QBwkz-9">
          <mxGeometry relative="1" as="geometry" />
        </mxCell>
        <mxCell id="JvmCb1hBR-G6mU2QBwkz-6" value="&lt;div style=&quot;background-color: rgb(255, 255, 255); color: rgb(8, 8, 8);&quot;&gt;&lt;pre style=&quot;font-family: &amp;quot;JetBrains Mono&amp;quot;, monospace;&quot;&gt;&lt;span style=&quot;color: rgb(0, 0, 0);&quot;&gt;&lt;font style=&quot;font-size: 10px;&quot;&gt;StartupExecutorServiceV2.startup&lt;/font&gt;&lt;/span&gt;&lt;/pre&gt;&lt;/div&gt;" style="whiteSpace=wrap;html=1;strokeWidth=2;" vertex="1" parent="1">
          <mxGeometry x="510" y="230" width="120" height="60" as="geometry" />
        </mxCell>
        <mxCell id="JvmCb1hBR-G6mU2QBwkz-8" value="10s" style="text;html=1;align=center;verticalAlign=middle;resizable=0;points=[];autosize=1;strokeColor=none;fillColor=none;" vertex="1" parent="1">
          <mxGeometry x="610" y="90" width="40" height="30" as="geometry" />
        </mxCell>
        <mxCell id="JvmCb1hBR-G6mU2QBwkz-17" value="" style="edgeStyle=orthogonalEdgeStyle;rounded=0;orthogonalLoop=1;jettySize=auto;html=1;" edge="1" parent="1" source="JvmCb1hBR-G6mU2QBwkz-9" target="JvmCb1hBR-G6mU2QBwkz-16">
          <mxGeometry relative="1" as="geometry" />
        </mxCell>
        <mxCell id="JvmCb1hBR-G6mU2QBwkz-20" value="Y" style="edgeLabel;html=1;align=center;verticalAlign=middle;resizable=0;points=[];" vertex="1" connectable="0" parent="JvmCb1hBR-G6mU2QBwkz-17">
          <mxGeometry x="-0.3467" relative="1" as="geometry">
            <mxPoint as="offset" />
          </mxGeometry>
        </mxCell>
        <mxCell id="JvmCb1hBR-G6mU2QBwkz-22" value="" style="edgeStyle=orthogonalEdgeStyle;rounded=0;orthogonalLoop=1;jettySize=auto;html=1;" edge="1" parent="1" source="JvmCb1hBR-G6mU2QBwkz-9" target="JvmCb1hBR-G6mU2QBwkz-21">
          <mxGeometry relative="1" as="geometry" />
        </mxCell>
        <mxCell id="JvmCb1hBR-G6mU2QBwkz-33" style="edgeStyle=orthogonalEdgeStyle;rounded=0;orthogonalLoop=1;jettySize=auto;html=1;exitX=0;exitY=0.5;exitDx=0;exitDy=0;entryX=0;entryY=0.5;entryDx=0;entryDy=0;" edge="1" parent="1" source="JvmCb1hBR-G6mU2QBwkz-9" target="JvmCb1hBR-G6mU2QBwkz-28">
          <mxGeometry relative="1" as="geometry">
            <mxPoint x="260" y="812.3999633789062" as="targetPoint" />
            <Array as="points">
              <mxPoint x="260" y="400" />
              <mxPoint x="260" y="790" />
            </Array>
          </mxGeometry>
        </mxCell>
        <mxCell id="JvmCb1hBR-G6mU2QBwkz-34" value="N" style="edgeLabel;html=1;align=center;verticalAlign=middle;resizable=0;points=[];" vertex="1" connectable="0" parent="JvmCb1hBR-G6mU2QBwkz-33">
          <mxGeometry x="-0.6809" y="-1" relative="1" as="geometry">
            <mxPoint as="offset" />
          </mxGeometry>
        </mxCell>
        <mxCell id="JvmCb1hBR-G6mU2QBwkz-9" value="is run latest executor" style="rhombus;whiteSpace=wrap;html=1;strokeWidth=2;" vertex="1" parent="1">
          <mxGeometry x="530" y="360" width="80" height="80" as="geometry" />
        </mxCell>
        <mxCell id="JvmCb1hBR-G6mU2QBwkz-19" value="" style="edgeStyle=orthogonalEdgeStyle;rounded=0;orthogonalLoop=1;jettySize=auto;html=1;" edge="1" parent="1" source="JvmCb1hBR-G6mU2QBwkz-16" target="JvmCb1hBR-G6mU2QBwkz-18">
          <mxGeometry relative="1" as="geometry" />
        </mxCell>
        <mxCell id="JvmCb1hBR-G6mU2QBwkz-16" value="try release device if done" style="whiteSpace=wrap;html=1;strokeWidth=2;" vertex="1" parent="1">
          <mxGeometry x="670" y="370" width="120" height="60" as="geometry" />
        </mxCell>
        <mxCell id="JvmCb1hBR-G6mU2QBwkz-18" value="&lt;pre style=&quot;font-family: &amp;quot;JetBrains Mono&amp;quot;, monospace;&quot;&gt;&lt;span&gt;&lt;font style=&quot;font-size: 10px; color: rgb(0, 0, 0);&quot;&gt;startupWithHandleError&lt;/font&gt;&lt;/span&gt;&lt;/pre&gt;" style="whiteSpace=wrap;html=1;strokeWidth=2;" vertex="1" parent="1">
          <mxGeometry x="670" y="510" width="120" height="60" as="geometry" />
        </mxCell>
        <mxCell id="JvmCb1hBR-G6mU2QBwkz-24" value="" style="edgeStyle=orthogonalEdgeStyle;rounded=0;orthogonalLoop=1;jettySize=auto;html=1;" edge="1" parent="1" source="JvmCb1hBR-G6mU2QBwkz-21" target="JvmCb1hBR-G6mU2QBwkz-23">
          <mxGeometry relative="1" as="geometry" />
        </mxCell>
        <mxCell id="JvmCb1hBR-G6mU2QBwkz-25" value="Y" style="edgeLabel;html=1;align=center;verticalAlign=middle;resizable=0;points=[];" vertex="1" connectable="0" parent="JvmCb1hBR-G6mU2QBwkz-24">
          <mxGeometry x="0.04" relative="1" as="geometry">
            <mxPoint as="offset" />
          </mxGeometry>
        </mxCell>
        <mxCell id="JvmCb1hBR-G6mU2QBwkz-29" value="" style="edgeStyle=orthogonalEdgeStyle;rounded=0;orthogonalLoop=1;jettySize=auto;html=1;" edge="1" parent="1" source="JvmCb1hBR-G6mU2QBwkz-21" target="JvmCb1hBR-G6mU2QBwkz-28">
          <mxGeometry relative="1" as="geometry" />
        </mxCell>
        <mxCell id="JvmCb1hBR-G6mU2QBwkz-30" value="N" style="edgeLabel;html=1;align=center;verticalAlign=middle;resizable=0;points=[];" vertex="1" connectable="0" parent="JvmCb1hBR-G6mU2QBwkz-29">
          <mxGeometry x="-0.0533" y="-3" relative="1" as="geometry">
            <mxPoint as="offset" />
          </mxGeometry>
        </mxCell>
        <mxCell id="JvmCb1hBR-G6mU2QBwkz-21" value="is retry run executor" style="rhombus;whiteSpace=wrap;html=1;strokeWidth=2;" vertex="1" parent="1">
          <mxGeometry x="530" y="520" width="80" height="80" as="geometry" />
        </mxCell>
        <mxCell id="JvmCb1hBR-G6mU2QBwkz-27" value="" style="edgeStyle=orthogonalEdgeStyle;rounded=0;orthogonalLoop=1;jettySize=auto;html=1;" edge="1" parent="1" source="JvmCb1hBR-G6mU2QBwkz-23" target="JvmCb1hBR-G6mU2QBwkz-26">
          <mxGeometry relative="1" as="geometry" />
        </mxCell>
        <mxCell id="JvmCb1hBR-G6mU2QBwkz-23" value="try release device if done" style="whiteSpace=wrap;html=1;strokeWidth=2;" vertex="1" parent="1">
          <mxGeometry x="350" y="530" width="120" height="60" as="geometry" />
        </mxCell>
        <mxCell id="JvmCb1hBR-G6mU2QBwkz-26" value="&lt;div style=&quot;background-color: rgb(255, 255, 255);&quot;&gt;&lt;pre style=&quot;font-family: &amp;quot;JetBrains Mono&amp;quot;, monospace;&quot;&gt;&lt;span&gt;&lt;font style=&quot;font-size: 10px; color: rgb(51, 0, 0);&quot;&gt;startupWithHandleError&lt;/font&gt;&lt;/span&gt;&lt;/pre&gt;&lt;/div&gt;" style="whiteSpace=wrap;html=1;strokeWidth=2;" vertex="1" parent="1">
          <mxGeometry x="350" y="670" width="120" height="60" as="geometry" />
        </mxCell>
        <mxCell id="JvmCb1hBR-G6mU2QBwkz-36" value="" style="edgeStyle=orthogonalEdgeStyle;rounded=0;orthogonalLoop=1;jettySize=auto;html=1;" edge="1" parent="1" source="JvmCb1hBR-G6mU2QBwkz-28" target="JvmCb1hBR-G6mU2QBwkz-35">
          <mxGeometry relative="1" as="geometry" />
        </mxCell>
        <mxCell id="JvmCb1hBR-G6mU2QBwkz-28" value="&lt;div style=&quot;background-color: rgb(255, 255, 255);&quot;&gt;&lt;pre style=&quot;font-family: &amp;quot;JetBrains Mono&amp;quot;, monospace;&quot;&gt;&lt;span&gt;&lt;font style=&quot;font-size: 10px; color: rgb(0, 0, 0);&quot;&gt;startupExecutorByPeekExecutorCase&lt;/font&gt;&lt;/span&gt;&lt;/pre&gt;&lt;/div&gt;" style="whiteSpace=wrap;html=1;strokeWidth=2;" vertex="1" parent="1">
          <mxGeometry x="510" y="760" width="120" height="60" as="geometry" />
        </mxCell>
        <mxCell id="JvmCb1hBR-G6mU2QBwkz-38" value="" style="edgeStyle=orthogonalEdgeStyle;rounded=0;orthogonalLoop=1;jettySize=auto;html=1;" edge="1" parent="1" source="JvmCb1hBR-G6mU2QBwkz-35">
          <mxGeometry relative="1" as="geometry">
            <mxPoint x="670" y="930" as="targetPoint" />
          </mxGeometry>
        </mxCell>
        <mxCell id="JvmCb1hBR-G6mU2QBwkz-39" value="Y" style="edgeLabel;html=1;align=center;verticalAlign=middle;resizable=0;points=[];" vertex="1" connectable="0" parent="JvmCb1hBR-G6mU2QBwkz-38">
          <mxGeometry x="0.1133" relative="1" as="geometry">
            <mxPoint as="offset" />
          </mxGeometry>
        </mxCell>
        <mxCell id="JvmCb1hBR-G6mU2QBwkz-42" value="" style="edgeStyle=orthogonalEdgeStyle;rounded=0;orthogonalLoop=1;jettySize=auto;html=1;" edge="1" parent="1" source="JvmCb1hBR-G6mU2QBwkz-35" target="JvmCb1hBR-G6mU2QBwkz-41">
          <mxGeometry relative="1" as="geometry" />
        </mxCell>
        <mxCell id="JvmCb1hBR-G6mU2QBwkz-43" value="N" style="edgeLabel;html=1;align=center;verticalAlign=middle;resizable=0;points=[];" vertex="1" connectable="0" parent="JvmCb1hBR-G6mU2QBwkz-42">
          <mxGeometry x="-0.24" y="-4" relative="1" as="geometry">
            <mxPoint as="offset" />
          </mxGeometry>
        </mxCell>
        <mxCell id="JvmCb1hBR-G6mU2QBwkz-35" value="&lt;font style=&quot;color: rgb(255, 29, 3);&quot;&gt;device reach upper limit&lt;/font&gt;" style="rhombus;whiteSpace=wrap;html=1;strokeWidth=2;" vertex="1" parent="1">
          <mxGeometry x="530" y="890" width="80" height="80" as="geometry" />
        </mxCell>
        <mxCell id="JvmCb1hBR-G6mU2QBwkz-40" value="over" style="strokeWidth=2;html=1;shape=mxgraph.flowchart.terminator;whiteSpace=wrap;" vertex="1" parent="1">
          <mxGeometry x="670" y="900" width="100" height="60" as="geometry" />
        </mxCell>
        <mxCell id="JvmCb1hBR-G6mU2QBwkz-45" value="" style="edgeStyle=orthogonalEdgeStyle;rounded=0;orthogonalLoop=1;jettySize=auto;html=1;" edge="1" parent="1" source="JvmCb1hBR-G6mU2QBwkz-41" target="JvmCb1hBR-G6mU2QBwkz-44">
          <mxGeometry relative="1" as="geometry" />
        </mxCell>
        <mxCell id="JvmCb1hBR-G6mU2QBwkz-41" value="find idle devices" style="whiteSpace=wrap;html=1;strokeWidth=2;" vertex="1" parent="1">
          <mxGeometry x="510" y="1060" width="120" height="60" as="geometry" />
        </mxCell>
        <mxCell id="JvmCb1hBR-G6mU2QBwkz-47" value="" style="edgeStyle=orthogonalEdgeStyle;rounded=0;orthogonalLoop=1;jettySize=auto;html=1;" edge="1" parent="1" source="JvmCb1hBR-G6mU2QBwkz-44" target="JvmCb1hBR-G6mU2QBwkz-46">
          <mxGeometry relative="1" as="geometry" />
        </mxCell>
        <mxCell id="JvmCb1hBR-G6mU2QBwkz-44" value="list device tasks" style="whiteSpace=wrap;html=1;strokeWidth=2;" vertex="1" parent="1">
          <mxGeometry x="510" y="1200" width="120" height="60" as="geometry" />
        </mxCell>
        <mxCell id="JvmCb1hBR-G6mU2QBwkz-51" value="" style="edgeStyle=orthogonalEdgeStyle;rounded=0;orthogonalLoop=1;jettySize=auto;html=1;" edge="1" parent="1" source="JvmCb1hBR-G6mU2QBwkz-46" target="JvmCb1hBR-G6mU2QBwkz-50">
          <mxGeometry relative="1" as="geometry" />
        </mxCell>
        <mxCell id="JvmCb1hBR-G6mU2QBwkz-46" value="match idle devices&amp;amp;device tasks" style="whiteSpace=wrap;html=1;strokeWidth=2;" vertex="1" parent="1">
          <mxGeometry x="510" y="1340" width="120" height="60" as="geometry" />
        </mxCell>
        <mxCell id="JvmCb1hBR-G6mU2QBwkz-53" value="" style="edgeStyle=orthogonalEdgeStyle;rounded=0;orthogonalLoop=1;jettySize=auto;html=1;" edge="1" parent="1" source="JvmCb1hBR-G6mU2QBwkz-50">
          <mxGeometry relative="1" as="geometry">
            <mxPoint x="670" y="1510" as="targetPoint" />
          </mxGeometry>
        </mxCell>
        <mxCell id="JvmCb1hBR-G6mU2QBwkz-55" value="Y" style="edgeLabel;html=1;align=center;verticalAlign=middle;resizable=0;points=[];" vertex="1" connectable="0" parent="JvmCb1hBR-G6mU2QBwkz-53">
          <mxGeometry x="-0.1934" y="1" relative="1" as="geometry">
            <mxPoint as="offset" />
          </mxGeometry>
        </mxCell>
        <mxCell id="JvmCb1hBR-G6mU2QBwkz-57" value="" style="edgeStyle=orthogonalEdgeStyle;rounded=0;orthogonalLoop=1;jettySize=auto;html=1;" edge="1" parent="1" source="JvmCb1hBR-G6mU2QBwkz-50" target="JvmCb1hBR-G6mU2QBwkz-56">
          <mxGeometry relative="1" as="geometry" />
        </mxCell>
        <mxCell id="JvmCb1hBR-G6mU2QBwkz-58" value="N" style="edgeLabel;html=1;align=center;verticalAlign=middle;resizable=0;points=[];" vertex="1" connectable="0" parent="JvmCb1hBR-G6mU2QBwkz-57">
          <mxGeometry x="0.2222" y="-2" relative="1" as="geometry">
            <mxPoint as="offset" />
          </mxGeometry>
        </mxCell>
        <mxCell id="JvmCb1hBR-G6mU2QBwkz-50" value="&lt;span style=&quot;color: rgb(255, 29, 3);&quot;&gt;device reach upper limit&lt;/span&gt;" style="rhombus;whiteSpace=wrap;html=1;strokeWidth=2;" vertex="1" parent="1">
          <mxGeometry x="530" y="1470" width="80" height="80" as="geometry" />
        </mxCell>
        <mxCell id="JvmCb1hBR-G6mU2QBwkz-54" value="Over" style="strokeWidth=2;html=1;shape=mxgraph.flowchart.terminator;whiteSpace=wrap;" vertex="1" parent="1">
          <mxGeometry x="670" y="1480" width="100" height="60" as="geometry" />
        </mxCell>
        <mxCell id="JvmCb1hBR-G6mU2QBwkz-60" value="" style="edgeStyle=orthogonalEdgeStyle;rounded=0;orthogonalLoop=1;jettySize=auto;html=1;" edge="1" parent="1" source="JvmCb1hBR-G6mU2QBwkz-56" target="JvmCb1hBR-G6mU2QBwkz-59">
          <mxGeometry relative="1" as="geometry" />
        </mxCell>
        <mxCell id="JvmCb1hBR-G6mU2QBwkz-56" value="occupy devices&lt;div&gt;modify device status&lt;/div&gt;" style="whiteSpace=wrap;html=1;strokeWidth=2;" vertex="1" parent="1">
          <mxGeometry x="510" y="1640" width="120" height="60" as="geometry" />
        </mxCell>
        <mxCell id="JvmCb1hBR-G6mU2QBwkz-62" value="" style="edgeStyle=orthogonalEdgeStyle;rounded=0;orthogonalLoop=1;jettySize=auto;html=1;" edge="1" parent="1" source="JvmCb1hBR-G6mU2QBwkz-59" target="JvmCb1hBR-G6mU2QBwkz-61">
          <mxGeometry relative="1" as="geometry" />
        </mxCell>
        <mxCell id="JvmCb1hBR-G6mU2QBwkz-59" value="Modify" style="whiteSpace=wrap;html=1;strokeWidth=2;" vertex="1" parent="1">
          <mxGeometry x="510" y="1780" width="120" height="60" as="geometry" />
        </mxCell>
        <mxCell id="JvmCb1hBR-G6mU2QBwkz-61" value="&lt;div style=&quot;background-color: rgb(255, 255, 255); color: rgb(8, 8, 8);&quot;&gt;&lt;pre style=&quot;font-family: &amp;quot;JetBrains Mono&amp;quot;, monospace;&quot;&gt;&lt;span style=&quot;color: rgb(0, 98, 122);&quot;&gt;&lt;font style=&quot;font-size: 10px;&quot;&gt;startupWithHandleError&lt;/font&gt;&lt;/span&gt;&lt;/pre&gt;&lt;/div&gt;" style="whiteSpace=wrap;html=1;strokeWidth=2;" vertex="1" parent="1">
          <mxGeometry x="510" y="1920" width="120" height="60" as="geometry" />
        </mxCell>
        <mxCell id="JvmCb1hBR-G6mU2QBwkz-66" value="" style="edgeStyle=orthogonalEdgeStyle;rounded=0;orthogonalLoop=1;jettySize=auto;html=1;" edge="1" parent="1" source="JvmCb1hBR-G6mU2QBwkz-63" target="JvmCb1hBR-G6mU2QBwkz-65">
          <mxGeometry relative="1" as="geometry" />
        </mxCell>
        <mxCell id="JvmCb1hBR-G6mU2QBwkz-63" value="get device task lifecycle" style="strokeWidth=2;html=1;shape=mxgraph.flowchart.start_1;whiteSpace=wrap;" vertex="1" parent="1">
          <mxGeometry x="1020" y="90" width="100" height="60" as="geometry" />
        </mxCell>
        <mxCell id="JvmCb1hBR-G6mU2QBwkz-64" value="&lt;pre style=&quot;color: rgb(8, 8, 8); font-family: &amp;quot;JetBrains Mono&amp;quot;, monospace;&quot;&gt;&lt;span style=&quot;color: rgb(0, 98, 122);&quot;&gt;&lt;font style=&quot;font-size: 10px;&quot;&gt;startupWithHandleError&lt;/font&gt;&lt;/span&gt;&lt;/pre&gt;" style="text;html=1;align=center;verticalAlign=middle;resizable=0;points=[];autosize=1;strokeColor=none;fillColor=none;" vertex="1" parent="1">
          <mxGeometry x="1130" y="90" width="160" height="50" as="geometry" />
        </mxCell>
        <mxCell id="JvmCb1hBR-G6mU2QBwkz-68" value="" style="edgeStyle=orthogonalEdgeStyle;rounded=0;orthogonalLoop=1;jettySize=auto;html=1;" edge="1" parent="1" source="JvmCb1hBR-G6mU2QBwkz-65" target="JvmCb1hBR-G6mU2QBwkz-67">
          <mxGeometry relative="1" as="geometry" />
        </mxCell>
        <mxCell id="JvmCb1hBR-G6mU2QBwkz-65" value="added to lifecycle manager" style="whiteSpace=wrap;html=1;strokeWidth=2;" vertex="1" parent="1">
          <mxGeometry x="1010" y="230" width="120" height="60" as="geometry" />
        </mxCell>
        <mxCell id="JvmCb1hBR-G6mU2QBwkz-70" value="" style="edgeStyle=orthogonalEdgeStyle;rounded=0;orthogonalLoop=1;jettySize=auto;html=1;" edge="1" parent="1" source="JvmCb1hBR-G6mU2QBwkz-67" target="JvmCb1hBR-G6mU2QBwkz-69">
          <mxGeometry relative="1" as="geometry" />
        </mxCell>
        <mxCell id="JvmCb1hBR-G6mU2QBwkz-67" value="modify device status to busy" style="whiteSpace=wrap;html=1;strokeWidth=2;" vertex="1" parent="1">
          <mxGeometry x="1010" y="370" width="120" height="60" as="geometry" />
        </mxCell>
        <mxCell id="JvmCb1hBR-G6mU2QBwkz-69" value="startup test by project type" style="whiteSpace=wrap;html=1;strokeWidth=2;" vertex="1" parent="1">
          <mxGeometry x="1010" y="510" width="120" height="60" as="geometry" />
        </mxCell>
      </root>
    </mxGraphModel>
  </diagram>
</mxfile>
